<?xml version="1.0" encoding="UTF-8" standalone="no"?>
<svg
   xmlns:dc="http://purl.org/dc/elements/1.1/"
   xmlns:cc="http://creativecommons.org/ns#"
   xmlns:rdf="http://www.w3.org/1999/02/22-rdf-syntax-ns#"
   xmlns:svg="http://www.w3.org/2000/svg"
   xmlns="http://www.w3.org/2000/svg"
   viewBox="0 0 1122.52 793.70667"
   height="793.70667"
   width="1122.52"
   xml:space="preserve"
   id="svg2"
   version="1.1"><metadata
     id="metadata8"><rdf:RDF><cc:Work
         rdf:about=""><dc:format>image/svg+xml</dc:format><dc:type
           rdf:resource="http://purl.org/dc/dcmitype/StillImage" /></cc:Work></rdf:RDF></metadata><defs
     id="defs6"><clipPath
       id="clipPath18"
       clipPathUnits="userSpaceOnUse"><path
         id="path16"
         d="M 0,595.28 H 841.89 V 0 H 0 Z" /></clipPath><clipPath
       id="clipPath82"
       clipPathUnits="userSpaceOnUse"><path
         id="path80"
         d="m 384.774,136.687 h 40.394 V 63.1436 h -40.394 z" /></clipPath><clipPath
       id="clipPath110"
       clipPathUnits="userSpaceOnUse"><path
         id="path108"
         d="m 451.194,136.687 h 40.394 V 63.1436 h -40.394 z" /></clipPath><clipPath
       id="clipPath246"
       clipPathUnits="userSpaceOnUse"><path
         id="path244"
         d="m 471.056,431.617 h 31.846 V 380.95 h -31.846 z" /></clipPath><clipPath
       id="clipPath266"
       clipPathUnits="userSpaceOnUse"><path
         id="path264"
         d="m 480.686,420.861 h 25.355 v -30.885 h -25.355 z" /></clipPath><clipPath
       id="clipPath294"
       clipPathUnits="userSpaceOnUse"><path
         id="path292"
         d="m 374.651,427.566 h 26.952 v -51.321 h -26.952 z" /></clipPath><clipPath
       id="clipPath314"
       clipPathUnits="userSpaceOnUse"><path
         id="path312"
         d="m 383.574,417.145 h 22.754 v -30.917 h -22.754 z" /></clipPath><clipPath
       id="clipPath354"
       clipPathUnits="userSpaceOnUse"><path
         id="path352"
         d="m 397.404,350.597 h 54.84 v -37.472 h -54.84 z" /></clipPath><clipPath
       id="clipPath370"
       clipPathUnits="userSpaceOnUse"><path
         id="path368"
         d="m 397.229,382.664 h 68.484 v -77.755 h -68.484 z" /></clipPath></defs><g
     transform="matrix(1.3333333,0,0,-1.3333333,0,793.70667)"
     id="g10"><g
       id="g12"><g
         clip-path="url(#clipPath18)"
         id="g14"><g
           transform="translate(409.4648,292.375)"
           id="g20"><path
             id="path22"
             style="fill:#1076bc;fill-opacity:1;fill-rule:nonzero;stroke:none"
             d="m 0,0 c 0,0 -30.629,6.956 -52.813,5.326 -7.84,-0.575 -26.815,1.536 -29.143,4.346 -3.465,4.181 -16.452,18.131 -25.469,24.742 -4.24,3.11 -8.56,12.993 -9.524,19.264 -1.329,8.663 -2.38,17.746 0,35.062 1.241,9.019 20.098,52.219 5.627,44.586 -35.278,-18.614 -33.951,-62.9 -30.922,-65.065 0,0 -33.358,-108.517 34.17,-118.905 9.22,-1.419 25.159,-10.842 42.637,-1.732 16.586,8.644 43.294,19.263 72.514,18.397 0,0 18.968,26.62 -7.077,33.979" /></g><g
           transform="translate(341.52,241.4014)"
           id="g24"><path
             id="path26"
             style="fill:#278fce;fill-opacity:1;fill-rule:nonzero;stroke:none"
             d="M 0,0 C -17.73,-8.606 -33.394,1.266 -42.571,2.945 -59.465,6.04 -69.808,15.154 -75.829,27.062 -69.743,13.565 -58.79,3.199 -40.129,0.33 -30.909,-1.09 -14.97,-10.513 2.508,-1.402 15.683,5.464 35.249,13.57 57.383,16.183 34.361,14.496 13.771,6.687 0,0" /></g><g
           transform="translate(267.105,360.7446)"
           id="g28"><path
             id="path30"
             style="fill:#278fce;fill-opacity:1;fill-rule:nonzero;stroke:none"
             d="M 0,0 C 0.661,2.206 1.076,3.434 1.076,3.434 -1.073,5.065 -1.694,28.765 11.734,48.396 -3.26,28.147 -2.239,2.435 0,0" /></g><g
           transform="translate(409.4648,292.375)"
           id="g32"><path
             id="path34"
             style="fill:#e83653;fill-opacity:1;fill-rule:nonzero;stroke:none"
             d="m 0,0 c 0,0 -9.753,2.214 -22.237,3.853 11.986,-1.966 21.194,-4.335 21.194,-4.335 23.323,-7.315 9.501,-29.282 6.604,-33.471 0.505,-0.008 1.009,-0.012 1.516,-0.026 0,0 18.968,26.62 -7.077,33.979" /></g><g
           transform="translate(409.4648,292.375)"
           id="g36"><path
             id="path38"
             style="fill:#278fce;fill-opacity:1;fill-rule:nonzero;stroke:none"
             d="m 0,0 c 0,0 -30.629,6.956 -52.813,5.326 -7.84,-0.575 -26.815,1.536 -29.143,4.346 -3.465,4.181 -16.452,18.131 -25.469,24.742 -4.24,3.11 -8.56,12.993 -9.524,19.264 -1.329,8.663 -2.38,17.746 0,35.062 1.241,9.019 20.098,52.219 5.627,44.586 -1.946,-1.027 -3.775,-2.138 -5.504,-3.308 11.805,4.076 -5.809,-36.487 -7.007,-45.194 -2.38,-17.315 -1.329,-26.399 0,-35.061 0.962,-6.271 5.284,-16.155 9.524,-19.264 9.016,-6.611 23.549,-18.239 27.013,-22.417 2.33,-2.811 19.758,-7.247 27.598,-6.671 22.185,1.629 52.814,-5.326 52.814,-5.326 19.807,-5.598 13.581,-22.332 9.461,-30.027 1.494,0.014 2.993,0.007 4.5,-0.037 0,0 18.968,26.62 -7.077,33.979" /></g><g
           transform="translate(268.3843,255.042)"
           id="g40"><path
             id="path42"
             style="fill:#0f76af;fill-opacity:1;fill-rule:nonzero;stroke:none"
             d="m 0,0 c 0,0 -4.5,-8.88 7.489,-12.673 6.471,-2.044 15.374,-7.487 27.791,4.561 2.378,2.307 4.328,1.834 9.918,6.278 C 46.915,-0.471 45.79,8.169 27.609,9.573 27.609,9.573 17.964,11.47 0,0" /></g><g
           transform="translate(313.5825,256.0869)"
           id="g44"><path
             id="path46"
             style="fill:#278fce;fill-opacity:1;fill-rule:nonzero;stroke:none"
             d="m 0,0 c -5.59,-4.445 -7.54,-3.97 -9.918,-6.28 -12.417,-12.048 -21.32,-6.607 -27.791,-4.56 -5.784,1.829 -7.725,4.842 -8.19,7.471 -0.483,-2.899 0.085,-7.783 8.19,-10.349 6.471,-2.044 15.374,-7.487 27.791,4.561 C -7.54,-6.85 -5.59,-7.323 0,-2.879 0.564,-2.432 0.821,-1.196 0.267,0.31 0.19,0.182 0.1,0.078 0,0" /></g><g
           transform="translate(248.5811,286.9648)"
           id="g48"><path
             id="path50"
             style="fill:#0f76af;fill-opacity:1;fill-rule:nonzero;stroke:none"
             d="m 0,0 c 0,0 -9.258,-17.07 5.843,-26.621 6.23,-3.941 18.205,-11.41 30.193,-5.302 5.064,2.58 10.18,5.699 19.595,7.536 3.647,0.716 11.896,7.268 -8.232,11.401 -2.263,0.464 -8.67,1.247 -10.93,2.19 C 27.358,-6.989 16.341,6.386 0,0" /></g><g
           transform="translate(304.2119,265.6846)"
           id="g52"><path
             id="path54"
             style="fill:#278fce;fill-opacity:1;fill-rule:nonzero;stroke:none"
             d="m 0,0 c -9.415,-1.841 -14.531,-4.958 -19.595,-7.538 -11.988,-6.108 -23.963,1.361 -30.193,5.302 -6.111,3.866 -8.233,8.962 -8.594,13.66 -0.393,-5.437 1.101,-12.028 8.594,-16.765 6.23,-3.94 18.205,-11.41 30.193,-5.302 5.064,2.58 10.18,5.7 19.595,7.537 2.228,0.437 6.17,3.05 4.32,5.96 C 3.403,1.367 1.375,0.269 0,0" /></g><g
           transform="translate(237.9751,322.0283)"
           id="g56"><path
             id="path58"
             style="fill:#0f76af;fill-opacity:1;fill-rule:nonzero;stroke:none"
             d="m 0,0 c 0,0 -10.646,-15.591 -5.845,-25.463 3.462,-7.114 5.196,-13.928 26.852,-16.742 6.805,-0.886 18.385,-5.22 28.231,-3.056 4.146,0.912 18.659,0.793 13.421,7.491 -6.602,8.443 -17.64,9.308 -29.003,15.584 z" /></g><g
           transform="translate(290.9541,280.624)"
           id="g60"><path
             id="path62"
             style="fill:#278fce;fill-opacity:1;fill-rule:nonzero;stroke:none"
             d="m 0,0 c -9.849,-2.165 -21.428,2.17 -28.232,3.054 -21.657,2.812 -23.391,9.629 -26.851,16.742 -3.171,6.519 0.393,15.528 3.18,20.898 l -1.076,0.71 c 0,0 -10.646,-15.591 -5.845,-25.463 3.462,-7.114 5.196,-13.927 26.852,-16.742 6.805,-0.886 18.385,-5.22 28.231,-3.055 3.703,0.814 15.672,0.807 14.458,5.567 C 7.186,0.67 2.171,0.476 0,0" /></g><g
           transform="translate(267.6265,362.502)"
           id="g64"><path
             id="path66"
             style="fill:#0f76af;fill-opacity:1;fill-rule:nonzero;stroke:none"
             d="m 0,0 c 0,0 -17.36,11.741 -31.167,0 -3.652,-3.106 -14.913,-6.848 -15.366,-11.473 -0.87,-8.872 3.582,-26.276 17.966,-37.509 13.554,-10.587 31.381,-19.196 54.755,-16.432 3.443,0.407 18.398,11.305 2.166,16.037 -6.509,1.898 -14.718,8.687 -24.241,13.88 -2.562,1.398 -8.658,2.814 -9.546,6.711 0,0 10.411,21.21 5.433,28.786" /></g><g
           transform="translate(244.4219,313.5195)"
           id="g68"><path
             id="path70"
             style="fill:#278fce;fill-opacity:1;fill-rule:nonzero;stroke:none"
             d="m 0,0 c -14.383,11.233 -18.836,28.637 -17.966,37.51 0.453,4.625 11.714,8.366 15.366,11.472 3.74,3.179 7.737,4.634 11.582,5.07 C 3.659,54.617 -2.436,53.682 -7.962,48.982 -11.614,45.876 -22.875,42.135 -23.329,37.51 -24.199,28.637 -19.747,11.233 -5.363,0 7.006,-9.661 22.935,-17.669 43.388,-16.897 25.487,-16.226 11.266,-8.8 0,0" /></g><g
           transform="translate(425.0332,88.2002)"
           id="g72"><path
             id="path74"
             style="fill:#fcd12f;fill-opacity:1;fill-rule:nonzero;stroke:none"
             d="m 0,0 c -1.398,-5.154 -7.306,-9.622 -3.139,-20.254 0.239,-0.606 0.822,-2.844 -1.503,-2.329 -4.868,1.073 -8.834,10.323 -7.32,18.548 0,0 -2.921,-6.926 -4.437,-8.333 -1.053,-0.978 -1.439,-2.945 -1.948,-4.439 -0.744,-2.185 -0.362,-8.718 -2.921,-8.223 -2.754,0.536 -9.019,8.082 -3.896,22.293 0,0 -2.922,-4.436 -6.061,-6.385 -1.7,-1.057 -2.546,-4.995 -2.813,-6.71 -0.372,-2.395 -3.198,-8.815 -5.627,-7.899 -2.75,1.038 -5.408,11.306 0.757,25.648 1.839,4.28 4.221,10.713 14.934,11.146 0,0 7.107,11.183 5.375,35.423 0,0 14.155,-1.444 13.13,-11.255 -0.758,-7.254 -3.463,-20.92 -7.07,-27.703 0,0 14.2,-3.407 12.539,-9.528" /></g><g
           id="g76"><g
             id="g78" /><g
             id="g98"><g
               style="opacity:0.5"
               id="g96"
               clip-path="url(#clipPath82)"><g
                 id="g86"
                 transform="translate(400.5186,86.9775)"><path
                   id="path84"
                   style="fill:#e3b523;fill-opacity:1;fill-rule:nonzero;stroke:none"
                   d="m 0,0 c 0,0 -5.841,-5.95 -8.98,-7.899 -1.701,-1.057 -2.547,-4.996 -2.813,-6.71 -0.289,-1.854 -2.044,-6.114 -3.951,-7.524 0.195,-0.171 0.393,-0.301 0.594,-0.376 2.429,-0.916 5.254,5.505 5.627,7.9 0.267,1.714 1.112,5.653 2.813,6.71 C -5.963,-7.435 -0.716,-1.646 0,0" /></g><g
                 id="g90"
                 transform="translate(412.4946,97.7285)"><path
                   id="path88"
                   style="fill:#e3b523;fill-opacity:1;fill-rule:nonzero;stroke:none"
                   d="M 0,0 C 3.607,6.782 6.312,20.448 7.069,27.703 8.094,37.514 -6.06,38.958 -6.06,38.958 -6.051,38.823 -6.045,38.693 -6.036,38.557 -2.074,37.668 5.562,35.002 4.799,27.703 4.042,20.448 1.337,6.782 -2.27,0 c 0,0 14.199,-3.407 12.539,-9.528 -1.399,-5.155 -7.307,-9.622 -3.14,-20.254 0.159,-0.403 0.463,-1.518 -0.025,-2.077 0.261,-0.108 0.525,-0.194 0.792,-0.252 2.325,-0.515 1.742,1.722 1.503,2.329 -4.166,10.632 1.741,15.099 3.14,20.254 C 14.2,-3.407 0,0 0,0" /></g><g
                 id="g94"
                 transform="translate(413.3604,85.4629)"><path
                   id="path92"
                   style="fill:#e3b523;fill-opacity:1;fill-rule:nonzero;stroke:none"
                   d="m 0,0 c 0,0 -5.481,-8.224 -6.996,-9.631 -1.053,-0.977 -1.44,-2.944 -1.948,-4.438 -0.597,-1.751 -0.472,-6.301 -1.718,-7.78 0.395,-0.231 0.76,-0.384 1.067,-0.444 2.558,-0.495 2.177,6.038 2.921,8.224 0.509,1.494 0.895,3.461 1.948,4.438 C -4.199,-9.141 -0.773,-3.358 0,0" /></g></g></g></g><g
           transform="translate(451.3291,88.2002)"
           id="g100"><path
             id="path102"
             style="fill:#fcd12f;fill-opacity:1;fill-rule:nonzero;stroke:none"
             d="m 0,0 c 1.397,-5.154 7.307,-9.622 3.138,-20.254 -0.238,-0.606 -0.821,-2.844 1.504,-2.329 4.868,1.073 8.835,10.323 7.319,18.548 0,0 2.922,-6.926 4.438,-8.333 1.053,-0.978 1.44,-2.945 1.948,-4.439 0.744,-2.185 0.363,-8.718 2.922,-8.223 2.753,0.536 9.017,8.082 3.894,22.293 0,0 2.923,-4.436 6.062,-6.385 1.7,-1.057 2.546,-4.995 2.813,-6.71 0.372,-2.395 3.197,-8.815 5.627,-7.899 2.75,1.038 5.406,11.306 -0.758,25.648 -1.839,4.28 -4.22,10.713 -14.933,11.146 0,0 -7.108,11.183 -5.375,35.423 0,0 -14.155,-1.444 -13.129,-11.255 C 6.226,29.977 8.932,16.311 12.538,9.528 12.538,9.528 -1.661,6.121 0,0" /></g><g
           id="g104"><g
             id="g106" /><g
             id="g126"><g
               style="opacity:0.5"
               id="g124"
               clip-path="url(#clipPath110)"><g
                 id="g114"
                 transform="translate(475.8437,86.9775)"><path
                   id="path112"
                   style="fill:#e3b523;fill-opacity:1;fill-rule:nonzero;stroke:none"
                   d="m 0,0 c 0,0 5.842,-5.95 8.98,-7.899 1.702,-1.057 2.547,-4.996 2.813,-6.71 0.289,-1.854 2.045,-6.114 3.951,-7.524 -0.195,-0.171 -0.393,-0.301 -0.594,-0.376 -2.429,-0.916 -5.254,5.505 -5.627,7.9 C 9.256,-12.895 8.41,-8.956 6.71,-7.899 5.963,-7.435 0.716,-1.646 0,0" /></g><g
                 id="g118"
                 transform="translate(463.8672,97.7285)"><path
                   id="path116"
                   style="fill:#e3b523;fill-opacity:1;fill-rule:nonzero;stroke:none"
                   d="M 0,0 C -3.606,6.782 -6.312,20.448 -7.068,27.703 -8.094,37.514 6.061,38.958 6.061,38.958 6.051,38.823 6.045,38.693 6.037,38.557 2.074,37.668 -5.561,35.002 -4.799,27.703 -4.043,20.448 -1.336,6.782 2.271,0 c 0,0 -14.201,-3.407 -12.54,-9.528 1.4,-5.155 7.308,-9.622 3.14,-20.254 -0.158,-0.403 -0.463,-1.518 0.025,-2.077 -0.261,-0.108 -0.525,-0.194 -0.792,-0.252 -2.325,-0.515 -1.742,1.722 -1.504,2.329 4.169,10.632 -1.741,15.099 -3.138,20.254 C -14.199,-3.407 0,0 0,0" /></g><g
                 id="g122"
                 transform="translate(463.002,85.4629)"><path
                   id="path120"
                   style="fill:#e3b523;fill-opacity:1;fill-rule:nonzero;stroke:none"
                   d="m 0,0 c 0,0 5.48,-8.224 6.996,-9.631 1.053,-0.977 1.44,-2.944 1.948,-4.438 0.597,-1.751 0.471,-6.301 1.718,-7.78 -0.394,-0.231 -0.76,-0.384 -1.066,-0.444 -2.559,-0.495 -2.178,6.038 -2.922,8.224 -0.508,1.494 -0.895,3.461 -1.947,4.438 C 4.198,-9.141 0.773,-3.358 0,0" /></g></g></g></g><g
           transform="translate(537.4492,261.3525)"
           id="g128"><path
             id="path130"
             style="fill:#1076bc;fill-opacity:1;fill-rule:nonzero;stroke:none"
             d="M 0,0 C 0,0 7.792,31.313 51.368,50.07 54.572,51.449 53.043,46.887 45.596,37.372 39.919,30.116 31.889,17.604 32.609,2.887 c 0,0 20.707,35.542 36.651,32.177 2.898,-0.611 2.15,-3.056 -3.223,-11.4 0,0 -13.37,-21.786 -15.101,-34.919 0,0 10.24,19.793 26.261,20.201 3.594,0.092 -0.99,-5.255 -6.927,-14.716 -2.832,-4.513 -9.522,-13.275 -10.389,-18.615 0,0 12.336,12.603 20.057,8.947 3.64,-1.724 1.226,-7.455 -5.484,-15.151 -2.912,-3.341 -6.05,-7.974 -10.1,-14.571 -5.96,-9.719 -27.27,-26.408 -36.65,-27.128 0,0 -24.673,-12.698 -27.704,5.481 0,0 -6.493,9.669 0,66.807" /></g><g
           transform="translate(599.748,294.8047)"
           id="g132"><path
             id="path134"
             style="fill:#278fce;fill-opacity:1;fill-rule:nonzero;stroke:none"
             d="m 0,0 c 2.897,-0.611 1.388,-2.612 -3.223,-11.398 -5.235,-9.983 -10.449,-29.556 -12.18,-42.688 0,0 5.376,11.726 11.799,20.009 -4.959,-5.22 -7.759,-10.63 -7.759,-10.63 1.731,13.133 15.101,34.919 15.101,34.919 5.373,8.344 6.121,10.789 3.223,11.4 C 4.161,2.203 1.213,1.59 -1.743,0.183 -1.162,0.178 -0.58,0.121 0,0" /></g><g
           transform="translate(617.3877,245.9141)"
           id="g136"><path
             id="path138"
             style="fill:#278fce;fill-opacity:1;fill-rule:nonzero;stroke:none"
             d="m 0,0 c -2.876,1.362 -6.393,0.466 -9.673,-1.191 0.919,0.116 1.83,-0.002 2.711,-0.42 3.641,-1.725 1.227,-7.454 -5.484,-15.152 -2.912,-3.341 -6.05,-7.97 -10.1,-14.572 -5.961,-9.717 -27.271,-26.406 -36.649,-27.127 0,0 -2.599,-1.337 -6.212,-2.522 6.715,0.811 13.173,4.134 13.173,4.134 9.38,0.72 30.689,17.41 36.65,27.128 4.05,6.598 7.188,11.231 10.1,14.572 C 1.226,-7.454 3.64,-1.724 0,0" /></g><g
           transform="translate(607.6846,268.6875)"
           id="g140"><path
             id="path142"
             style="fill:#278fce;fill-opacity:1;fill-rule:nonzero;stroke:none"
             d="m 0,0 c 3.546,-0.586 0.921,-5.663 -5.015,-15.127 -2.832,-4.514 -9.957,-19.477 -9.812,-24.74 0,0 3.043,5.916 7.073,10.54 -1.602,-1.373 -2.6,-2.393 -2.6,-2.393 0.867,5.34 7.557,14.102 10.388,18.616 C 5.972,-3.644 10.556,1.703 6.962,1.611 4.358,1.544 1.908,0.963 -0.372,0.042 -0.247,0.031 -0.124,0.021 0,0" /></g><g
           transform="translate(575.832,295.2617)"
           id="g144"><path
             id="path146"
             style="fill:#278fce;fill-opacity:1;fill-rule:nonzero;stroke:none"
             d="m 0,0 c -5.678,-7.255 -8.803,-24.53 -8.081,-39.247 0,0 2.956,7.759 7.589,16.353 -3.261,-4.664 -5.281,-8.128 -5.281,-8.128 -0.721,14.716 7.309,27.229 12.986,34.485 7.447,9.515 8.976,14.077 5.772,12.698 C 11.104,15.351 9.294,14.517 7.545,13.663 7.529,11.556 5.089,6.505 0,0" /></g><g
           transform="translate(364.1572,389.0513)"
           id="g148"><path
             id="path150"
             style="fill:#1076bc;fill-opacity:1;fill-rule:nonzero;stroke:none"
             d="m 0,0 c -5.868,58.069 30.59,78.638 30.59,78.638 0,0 -10.822,7.791 -31.744,-8.079 -1.979,-1.502 -5.058,1.084 0,11.254 5.942,11.947 24.096,25.25 49.346,20.344 0,0 -6.348,11.976 -28.424,7.214 -2.117,-0.456 -10.148,0.311 0.721,8.946 11.41,9.065 38.092,12.266 58.149,-4.039 0,0 -2.754,8.83 -11.759,12.3 -2.785,1.073 -16.801,7.689 0.974,11.796 16.269,3.76 40.472,-3.03 52.486,-39.392 0,0 33.764,20.021 49.455,-9.523 3.167,-5.963 -20.994,5.52 -26.405,-4.978 0,0 47.507,-21.318 34.413,-66.445 C 175.07,8.623 173.365,-8.802 176.07,-16.81 176.07,-16.81 4.185,-41.413 0,0" /></g><g
           transform="translate(429.0654,526.6357)"
           id="g152"><path
             id="path154"
             style="fill:#278fce;fill-opacity:1;fill-rule:nonzero;stroke:none"
             d="m 0,0 c 16.269,3.759 42.12,-5.271 54.132,-41.632 0,0 5.459,4.719 12.933,7.842 -6.828,-1.962 -11.634,-4.812 -11.634,-4.812 C 43.417,-2.241 19.214,4.55 2.944,0.79 1.843,0.536 0.866,0.272 -0.001,0 Z" /></g><g
           transform="translate(380.6157,487.4434)"
           id="g156"><path
             id="path158"
             style="fill:#278fce;fill-opacity:1;fill-rule:nonzero;stroke:none"
             d="m 0,0 c 9.087,3.27 21.709,3.693 36.569,0.807 0,0 -11.04,21.212 -35.637,13.553 C 0.49,14.223 -0.349,14.137 -1.289,14.17 -2.616,10.945 1.816,10.659 3.31,10.979 25.385,15.741 31.734,3.765 31.734,3.765 19.197,6.2 8.412,4.146 0,0" /></g><g
           transform="translate(507.5459,473.5327)"
           id="g160"><path
             id="path162"
             style="fill:#278fce;fill-opacity:1;fill-rule:nonzero;stroke:none"
             d="m 0,0 c 5.411,10.498 29.572,-0.985 26.405,4.978 -4.179,7.87 -9.64,12.221 -15.404,14.372 3.768,-2.154 7.32,-5.779 10.342,-11.469 3.167,-5.963 -18.637,5.538 -26.644,-8.097 0,0 47.747,-18.199 34.652,-63.327 -2.731,-9.414 -4.438,-26.838 -1.732,-34.846 0,0 -163.577,-25.486 -167.762,15.926 -5.867,58.07 33.548,77.702 33.548,77.702 0,0 -12.842,12.408 -33.763,-3.463 -1.981,-1.502 -5.059,1.083 0,11.254 0.269,0.543 0.573,1.064 0.895,1.576 -2.168,-2.373 -3.875,-4.851 -5.079,-7.275 -5.059,-10.17 -1.98,-12.755 0,-11.254 20.921,15.871 31.744,8.08 31.744,8.08 0,0 -36.458,-20.569 -30.591,-78.638 4.185,-41.413 176.071,-16.811 176.071,-16.811 -2.705,8.008 -1,25.433 1.731,34.846 C 47.508,-21.318 0,0 0,0" /></g><g
           transform="translate(490.123,295.623)"
           id="g164"><path
             id="path166"
             style="fill:#f6ddc0;fill-opacity:1;fill-rule:nonzero;stroke:none"
             d="m 0,0 c 29.715,-23.799 14.265,-66.837 5.627,-86.792 -22.952,-53.024 37.443,-63.631 37.443,-63.631 -4.328,-9.74 -19.668,-9.023 -24.746,-13.996 -13.996,-13.709 -30.553,-10.57 -30.553,-10.57 -10.822,-7.467 -20.02,-10.024 -28.894,-9.956 -44.371,0.338 -54.544,32.79 -54.544,32.79 -0.577,-6.06 -4.906,-17.028 -4.906,-17.028 -10.389,15.874 -13.274,60.604 -13.274,60.604 -11.544,60.892 24.818,90.612 24.818,90.612 -13.851,6.927 -10.389,20.201 -10.389,20.201 0,0 50.502,36.941 99.418,-2.234" /></g><g
           transform="translate(497.1211,216.2979)"
           id="g168"><path
             id="path170"
             style="fill:#fccbaa;fill-opacity:1;fill-rule:nonzero;stroke:none"
             d="m 0,0 c -2.84,-6.561 -4.402,-12.469 -4.963,-17.79 0.837,3.248 2.018,6.687 3.592,10.323 C 2.406,1.262 7.487,14.401 9.523,28.422 7.07,17.278 3.098,7.154 0,0" /></g><g
           transform="translate(397.3535,279.9727)"
           id="g172"><path
             id="path174"
             style="fill:#fccbaa;fill-opacity:1;fill-rule:nonzero;stroke:none"
             d="M 0,0 C 3.018,3.437 5.111,5.149 5.111,5.149 -2.303,8.855 -4.755,14.38 -5.435,18.716 -6.23,18.191 -6.649,17.885 -6.649,17.885 -6.649,17.885 -9.434,7.197 0,0" /></g><g
           transform="translate(509.8184,138.668)"
           id="g176"><path
             id="path178"
             style="fill:#fccbaa;fill-opacity:1;fill-rule:nonzero;stroke:none"
             d="m 0,0 c -13.996,-13.708 -30.554,-10.57 -30.554,-10.57 -10.821,-7.467 -20.02,-10.023 -28.893,-9.955 -44.372,0.338 -54.545,32.791 -54.545,32.791 -0.577,-6.063 -4.905,-17.027 -4.905,-17.027 -10.391,15.872 -13.275,60.602 -13.275,60.602 -2.788,14.705 -2.777,27.588 -1.163,38.678 -2.834,-12.645 -3.645,-28.01 -0.207,-46.143 0,0 2.885,-44.73 13.273,-60.604 0,0 4.33,10.968 4.907,17.028 0,0 10.173,-32.452 54.544,-32.79 8.874,-0.068 18.072,2.489 28.894,9.956 0,0 16.557,-3.139 30.553,10.57 5.078,4.973 20.418,4.256 24.746,13.996 0,0 -1.863,0.326 -4.811,1.154 C 12.24,4.188 3.576,3.503 0,0" /></g><g
           transform="translate(495.75,208.8311)"
           id="g180"><path
             id="path182"
             style="fill:#1076bc;fill-opacity:1;fill-rule:nonzero;stroke:none"
             d="m 0,0 c 8.638,19.955 24.088,62.993 -5.627,86.792 -22.557,18.064 -45.453,19.944 -63.576,16.724 2.492,-11.769 8.254,-30.008 20.721,-36.997 0,0 -19.046,-11.831 -19.334,-26.261 0,0 7.213,8.656 14.139,9.521 0,0 -27.704,-30.01 -25.394,-61.467 0,0 4.184,10.39 12.12,15.012 0,0 -20.822,-76.533 55.217,-91.783 6.089,0.31 15.753,2.33 24.431,10.832 5.078,4.973 20.418,4.256 24.746,13.996 0,0 -60.395,10.607 -37.443,63.631" /></g><g
           transform="translate(495.75,208.8311)"
           id="g184"><path
             id="path186"
             style="fill:#278fce;fill-opacity:1;fill-rule:nonzero;stroke:none"
             d="m 0,0 c 8.638,19.955 24.088,62.993 -5.627,86.792 -18.688,14.968 -37.605,18.819 -53.853,17.868 13.998,-0.83 29.425,-5.636 44.701,-17.868 C 14.936,62.993 -0.516,19.955 -9.152,0 -32.105,-53.024 28.291,-63.631 28.291,-63.631 23.962,-73.371 8.622,-72.654 3.545,-77.627 c -6.297,-6.167 -13.108,-8.922 -18.7,-10.09 1.118,-0.261 2.258,-0.509 3.421,-0.742 6.089,0.31 15.753,2.33 24.431,10.832 5.078,4.973 20.418,4.256 24.746,13.996 0,0 -60.395,10.607 -37.443,63.631" /></g><g
           transform="translate(483.8467,294.541)"
           id="g188"><path
             id="path190"
             style="fill:#1076bc;fill-opacity:1;fill-rule:nonzero;stroke:none"
             d="m 0,0 c 0,0 22.941,-0.649 66.879,-33.765 11.263,-8.49 43.286,-30.301 24.672,-52.954 C 86.758,-92.553 77.05,-99.344 70.125,-108 c 0,0 25.322,17.096 29.002,8.979 2.058,-4.536 -5.411,-9.63 -10.93,-16.664 0,0 8.549,4.653 12.878,6.384 6.23,2.491 13.072,22.923 22.617,14.501 3.68,-3.246 -0.109,-14.717 -14.176,-28.137 -6.792,-6.477 -11.147,-16.015 -32.682,-20.885 0,0 17.46,-0.035 24.53,-2.634 2.675,-0.981 10.677,-1.876 -0.144,-11.398 -7.019,-6.177 -16.882,-3.01 -28.426,-5.338 -15.728,-3.175 -38.669,-3.753 -58.148,2.163 -8.334,2.531 -13.997,5.338 -21.5,27.417 -1.928,5.672 -10.389,11.396 -1.299,23.516 8.355,11.142 13.853,20.78 51.079,41.7 0,0 -56.562,35.93 -42.926,68.396" /></g><g
           transform="translate(480.2979,159.583)"
           id="g192"><path
             id="path194"
             style="fill:#278fce;fill-opacity:1;fill-rule:nonzero;stroke:none"
             d="m 0,0 c -1.929,5.673 -10.388,11.399 -1.298,23.519 8.355,11.14 13.852,20.779 51.078,41.701 0,0 -56.561,35.929 -42.926,68.393 0,0 5.944,-0.172 17.567,-4.699 -13.801,5.84 -20.872,6.044 -20.872,6.044 C -10.087,102.492 46.475,66.563 46.475,66.563 9.249,45.642 3.751,36.004 -4.604,24.862 -13.694,12.742 -5.233,7.018 -3.306,1.346 3.585,-18.93 8.923,-22.952 16.201,-25.435 10.51,-22.625 5.806,-17.082 0,0" /></g><g
           transform="translate(588.5176,146.7402)"
           id="g196"><path
             id="path198"
             style="fill:#e83653;fill-opacity:1;fill-rule:nonzero;stroke:none"
             d="M 0,0 C 0.226,-0.083 0.49,-0.166 0.779,-0.252 -0.451,0.6 -2.275,0.967 -3.307,1.345 -7.291,2.809 -14.574,3.458 -20.173,3.747 -21.543,3.354 -22.991,2.981 -24.531,2.634 -24.531,2.634 -7.071,2.598 0,0" /></g><g
           transform="translate(507.0039,450.1572)"
           id="g200"><path
             id="path202"
             style="fill:#278fce;fill-opacity:1;fill-rule:nonzero;stroke:none"
             d="m 0,0 c -21.21,31.817 -36.793,-3.491 -36.793,-3.491 0,0 11.965,12.139 23.699,8.389 C -9.765,3.834 0,0 0,0" /></g><g
           transform="translate(409.8228,445.6768)"
           id="g204"><path
             id="path206"
             style="fill:#278fce;fill-opacity:1;fill-rule:nonzero;stroke:none"
             d="m 0,0 c -12.008,23.038 -25.109,0.323 -25.109,0.323 0,0 8.968,7.328 16.621,3.941 C -6.316,3.301 0,0 0,0" /></g><g
           transform="translate(503.3564,424.2944)"
           id="g208"><path
             id="path210"
             style="fill:#f6ddc0;fill-opacity:1;fill-rule:nonzero;stroke:none"
             d="m 0,0 c 4.554,9.306 -6.858,13.918 -11.438,13.419 -7.938,-0.867 -13.542,3.679 -13.542,3.679 0,0 -0.234,-3.787 3.268,-6.71 0,0 -6.304,-2.381 -12.841,1.623 0,0 1.753,-4.995 8.406,-7.37 2.227,-0.796 4.644,-2.914 3.009,-6.809 z" /></g><g
           transform="translate(491.918,437.7134)"
           id="g212"><path
             id="path214"
             style="fill:#fccbaa;fill-opacity:1;fill-rule:nonzero;stroke:none"
             d="m 0,0 c -7.937,-0.867 -13.542,3.679 -13.542,3.679 0,0 -0.233,-3.787 3.269,-6.71 0,0 -6.304,-2.381 -12.841,1.623 0,0 1.753,-4.995 8.405,-7.37 2.228,-0.796 4.645,-2.914 3.01,-6.809 l 3.735,0.35 c 1.521,3.828 -2.485,5.857 -4.149,6.459 -6.203,2.248 -7.712,4.602 -7.712,4.602 6.585,-2.237 12.331,0.244 12.331,0.244 -3.319,1.804 -3.956,4.775 -3.956,4.775 0,0 6.478,-3.766 14.417,-2.9 3.989,0.436 9.953,-4.053 8.418,-11.368 l 0.053,0.006 C 15.992,-4.113 4.58,0.5 0,0" /></g><g
           transform="translate(531.3896,272.4629)"
           id="g216"><path
             id="path218"
             style="fill:#278fce;fill-opacity:1;fill-rule:nonzero;stroke:none"
             d="m 0,0 c 23.481,-13.47 39.159,-29.299 43.249,-45.307 3.305,-12.939 -7.176,-22.077 -29.541,-47.471 0,0 32.196,19.672 34.053,13.421 1.662,-5.602 -4.762,-5.485 -11.543,-18.182 0,0 16.682,7.093 19.912,8.802 5.601,2.963 9.347,18.532 20.903,14.773 -0.218,0.493 -0.511,0.912 -0.884,1.242 -9.545,8.422 -16.387,-12.009 -22.617,-14.501 -4.329,-1.731 -12.878,-6.383 -12.878,-6.383 5.519,7.033 12.988,12.127 10.93,16.664 -3.68,8.116 -29.002,-8.98 -29.002,-8.98 6.925,8.656 16.633,15.447 21.426,21.281 18.614,22.653 -13.409,44.464 -24.672,52.954 -43.938,33.116 -66.879,33.765 -66.879,33.765 -0.004,-0.009 -0.007,-0.016 -0.011,-0.026 C -37.142,18.148 -18.265,10.479 0,0" /></g><g
           transform="translate(528.6484,131.0596)"
           id="g220"><path
             id="path222"
             style="fill:#278fce;fill-opacity:1;fill-rule:nonzero;stroke:none"
             d="m 0,0 c 0,0 -23.14,2.299 -43.683,12.052 4.199,-6.345 8.347,-8.026 13.527,-9.6 19.479,-5.916 42.421,-5.338 58.148,-2.163 0.119,0.023 0.238,0.043 0.358,0.066 C 24.15,1.56 15.931,2.32 0,0" /></g><g
           transform="translate(585.2109,148.085)"
           id="g224"><path
             id="path226"
             style="fill:#278fce;fill-opacity:1;fill-rule:nonzero;stroke:none"
             d="M 0,0 C -7.07,2.599 -24.53,2.634 -24.53,2.634 -10.152,5.886 -3.434,11.217 1.467,16.33 -5.764,12.1 -20.018,4.898 -30.086,7.071 c -9.216,1.987 -30.084,8.979 -36.144,-0.4 0,0 14.862,5.883 37.226,-4.361 7.121,-3.261 30.788,-2.665 30.734,-6.06 -0.121,-7.59 -9.091,-7.339 -19.439,-11.942 6.895,0.212 12.867,0.16 17.564,4.294 C 10.677,-1.876 2.675,-0.981 0,0" /></g><g
           transform="translate(397.0884,424.2944)"
           id="g228"><path
             id="path230"
             style="fill:#f6ddc0;fill-opacity:1;fill-rule:nonzero;stroke:none"
             d="m 0,0 c 2.435,9.306 -3.67,13.918 -6.122,13.419 -4.245,-0.867 -7.243,3.679 -7.243,3.679 0,0 -0.125,-3.787 1.749,-6.71 0,0 -3.373,-2.381 -6.87,1.623 0,0 0.192,-5.113 3.872,-6.709 0.93,-0.403 3.185,-1.406 2.311,-5.302 z" /></g><g
           transform="translate(390.9668,437.7134)"
           id="g232"><path
             id="path234"
             style="fill:#fccbaa;fill-opacity:1;fill-rule:nonzero;stroke:none"
             d="m 0,0 c -4.246,-0.867 -7.244,3.679 -7.244,3.679 0,0 -0.124,-3.787 1.75,-6.71 0,0 -3.373,-2.381 -6.87,1.623 0,0 0.192,-5.113 3.872,-6.709 0.93,-0.403 3.185,-1.406 2.31,-5.302 h 1.418 c 0.201,2.484 -0.372,3.955 -1.05,4.367 -4.526,2.751 -4.962,4.805 -4.962,4.805 1.749,-2.002 3.565,-1.064 4.962,-0.624 1.396,0.441 2.373,0.382 2.373,0.382 -1.874,2.923 -2.373,5.375 -2.373,5.375 0,0 2.628,-4.051 6.875,-3.185 2.203,0.449 5.827,-3.547 4.767,-11.12 H 6.122 C 8.556,-4.113 2.452,0.5 0,0" /></g><g
           transform="translate(507.2627,387.9541)"
           id="g236"><path
             id="path238"
             style="fill:#ffffff;fill-opacity:1;fill-rule:nonzero;stroke:none"
             d="m 0,0 c 0,0 14.886,36.103 -12.271,43.084 -9.603,2.47 -25.746,-2.266 -23.77,-27.973 0.459,-5.984 4.247,-15.165 10.729,-22.115 z" /></g><g
           id="g240"><g
             id="g242" /><g
             id="g254"><g
               style="opacity:0.19999701"
               id="g252"
               clip-path="url(#clipPath246)"><g
                 id="g250"
                 transform="translate(475.6172,400.6577)"><path
                   id="path248"
                   style="fill:#4c4b49;fill-opacity:1;fill-rule:nonzero;stroke:none"
                   d="m 0,0 c -1.975,25.709 14.167,30.445 23.771,27.975 1.261,-0.324 2.43,-0.711 3.514,-1.153 -2.121,1.514 -4.723,2.74 -7.91,3.558 -9.604,2.471 -25.746,-2.265 -23.771,-27.973 0.459,-5.984 4.248,-15.164 10.73,-22.115 l 1.916,0.531 C 3.287,-12.732 0.398,-5.172 0,0" /></g></g></g></g><g
           transform="translate(476.9121,407.5981)"
           id="g256"><path
             id="path258"
             style="fill:#332c26;fill-opacity:1;fill-rule:nonzero;stroke:none"
             d="m 0,0 c -0.943,-11.141 5.697,-20.827 14.83,-21.611 9.119,-0.786 17.281,7.614 18.207,18.754 C 33.969,8.286 27.339,17.96 18.216,18.745 9.088,19.538 0.932,11.148 0,0" /></g><g
           id="g260"><g
             id="g262" /><g
             id="g274"><g
               id="g272"
               clip-path="url(#clipPath266)"><g
                 id="g270"
                 transform="translate(480.7529,406.5088)"><path
                   id="path268"
                   style="fill:#332c26;fill-opacity:1;fill-rule:nonzero;stroke:none"
                   d="m 0,0 c -0.714,-8.499 4.363,-15.886 11.306,-16.495 6.976,-0.589 13.21,5.804 13.914,14.31 C 25.938,6.336 20.88,13.706 13.911,14.313 6.945,14.913 0.722,8.5 0,0" /></g></g></g></g><g
           transform="translate(483.9648,404.6978)"
           id="g276"><path
             id="path278"
             style="fill:#0c0d0d;fill-opacity:1;fill-rule:nonzero;stroke:none"
             d="m 0,0 c -0.533,-6.223 3.178,-11.636 8.289,-12.075 5.115,-0.455 9.67,4.252 10.203,10.485 C 19.016,4.653 15.29,10.053 10.197,10.49 5.084,10.938 0.516,6.245 0,0" /></g><g
           transform="translate(492.1211,416.7598)"
           id="g280"><path
             id="path282"
             style="fill:#ffffff;fill-opacity:1;fill-rule:nonzero;stroke:none"
             d="m 0,0 c 0.092,-4.198 2.951,-7.624 6.403,-7.613 3.456,0.002 6.16,3.419 6.076,7.62 C 12.367,4.234 9.5,7.634 6.057,7.654 2.621,7.648 -0.116,4.235 0,0" /></g><g
           transform="translate(408.8789,385.6206)"
           id="g284"><path
             id="path286"
             style="fill:#ffffff;fill-opacity:1;fill-rule:nonzero;stroke:none"
             d="m 0,0 c 0,0 10.236,37.355 -14.657,41.726 -8.805,1.546 -22.844,-4.702 -18.882,-30.105 0.922,-5.913 5.095,-14.694 11.487,-20.996 z" /></g><g
           id="g288"><g
             id="g290" /><g
             id="g302"><g
               style="opacity:0.19999701"
               id="g300"
               clip-path="url(#clipPath294)"><g
                 id="g298"
                 transform="translate(379.478,395.2632)"><path
                   id="path296"
                   style="fill:#4c4b49;fill-opacity:1;fill-rule:nonzero;stroke:none"
                   d="m 0,0 c -3.962,25.404 10.078,31.651 18.882,30.104 1.155,-0.202 2.234,-0.477 3.243,-0.813 -2.027,1.307 -4.46,2.278 -7.381,2.792 C 5.938,33.629 -8.1,27.381 -4.138,1.978 -3.216,-3.934 0.957,-12.716 7.349,-19.018 l 1.67,0.71 C 4.029,-12.364 0.798,-5.11 0,0" /></g></g></g></g><g
           transform="translate(380.0444,402.293)"
           id="g304"><path
             id="path306"
             style="fill:#332c26;fill-opacity:1;fill-rule:nonzero;stroke:none"
             d="M 0,0 C 0.106,-11.179 6.876,-20.191 15.114,-20.104 23.34,-20.02 29.928,-10.882 29.805,0.295 29.687,11.475 22.93,20.477 14.699,20.391 6.465,20.314 -0.118,11.187 0,0" /></g><g
           id="g308"><g
             id="g310" /><g
             id="g322"><g
               id="g320"
               clip-path="url(#clipPath314)"><g
                 id="g318"
                 transform="translate(383.5747,401.5757)"><path
                   id="path316"
                   style="fill:#332c26;fill-opacity:1;fill-rule:nonzero;stroke:none"
                   d="m 0,0 c 0.086,-8.528 5.259,-15.401 11.524,-15.347 6.291,0.076 11.325,7.031 11.228,15.566 C 22.667,8.771 17.512,15.625 11.224,15.568 4.94,15.502 -0.082,8.531 0,0" /></g></g></g></g><g
           transform="translate(386.6035,400.0776)"
           id="g324"><path
             id="path326"
             style="fill:#0c0d0d;fill-opacity:1;fill-rule:nonzero;stroke:none"
             d="m 0,0 c 0.055,-6.245 3.835,-11.282 8.447,-11.234 4.615,0.033 8.289,5.151 8.234,11.407 C 16.615,6.437 12.822,11.459 8.227,11.411 3.615,11.369 -0.072,6.265 0,0" /></g><g
           transform="translate(392.8706,412.8594)"
           id="g328"><path
             id="path330"
             style="fill:#ffffff;fill-opacity:1;fill-rule:nonzero;stroke:none"
             d="m 0,0 c 0.442,-4.171 3.292,-7.31 6.38,-6.971 3.092,0.331 5.219,3.988 4.785,8.164 C 10.705,5.389 7.85,8.501 4.767,8.195 1.693,7.863 -0.465,4.204 0,0" /></g><g
           transform="translate(384.5645,382.5439)"
           id="g332"><path
             id="path334"
             style="fill:#f6ddc0;fill-opacity:1;fill-rule:nonzero;stroke:none"
             d="m 0,0 c -7.126,6.596 -19.729,5.798 -26.467,3.043 -12.625,-5.158 -27.849,-20.6 -22.942,-49.49 0,0 2.452,13.563 12.409,15.727 0,0 -11.255,-23.952 6.925,-38.814 0,0 -2.164,10.965 0.722,12.696 0,0 21.141,-37.267 61.323,-42.998 23.108,-3.296 69.548,1.443 92.202,14.718 0,0 15.006,7.648 21.211,29.292 0,0 7.435,-2.887 4.119,-14.141 0,0 21.276,17.748 10.176,42.276 0,0 12.254,-4.904 12.254,-21.643 0,0 14.871,13.432 1.009,35.208 C 164.94,-1.556 149.911,8.364 116.813,5.93 106.24,5.152 89.575,-2.237 75.69,-8.933 58.865,-17.044 17.46,-16.162 0,0" /></g><g
           transform="translate(562.6768,356.5874)"
           id="g336"><path
             id="path338"
             style="fill:#fccbaa;fill-opacity:1;fill-rule:nonzero;stroke:none"
             d="m 0,0 c 0.597,-10.531 -4.491,-16.752 -4.491,-16.752 0,16.739 -17.975,21.151 -17.975,21.151 11.099,-24.529 -3.338,-41.988 -3.338,-41.988 3.319,11.254 -7.359,14.068 -7.359,14.068 -6.203,-21.644 -19.088,-29.016 -19.088,-29.016 -22.652,-13.273 -69.094,-18.011 -92.202,-14.716 -40.183,5.73 -61.323,42.999 -61.323,42.999 -2.887,-1.731 -4.648,-10.305 -4.648,-10.305 -11.156,17.314 -0.649,35.928 -0.649,35.928 -9.955,-2.165 -15.702,-15.459 -15.702,-15.459 -0.512,9.123 0.327,16.8 2.087,23.225 -3.391,-7.64 -4.904,-17.436 -2.833,-29.625 0,0 2.452,13.563 12.408,15.727 0,0 -11.255,-23.953 6.926,-38.815 0,0 -2.164,10.965 0.722,12.697 0,0 21.141,-37.268 61.323,-42.998 23.108,-3.296 69.547,1.443 92.202,14.717 0,0 15.005,7.649 21.211,29.293 0,0 7.435,-2.887 4.119,-14.141 0,0 21.276,17.747 10.175,42.276 0,0 12.254,-4.905 12.254,-21.643 0,0 9.598,8.672 6.181,23.377" /></g><g
           transform="translate(365.3115,364.9873)"
           id="g340"><path
             id="path342"
             style="fill:#fcd12f;fill-opacity:1;fill-rule:nonzero;stroke:none"
             d="m 0,0 c 0,0 6.981,19.285 35.495,24.64 13.059,2.454 19.805,-3.924 29.725,-7.141 6.624,-2.149 17.347,-6.202 27.414,-4.923 5.118,0.651 10.054,-5.528 6.638,-20.545 -3.512,-15.44 -15.769,-54.975 -46.317,-51.944 -5.586,0.554 -8.37,-1.877 -21.067,10.821 0,0 14.822,-0.756 22.509,23.087 0.916,2.84 2.608,10.468 0.92,12.561 C 50.418,-7.368 42.719,-6.3 30.514,1.062 23.977,5.003 15.078,5.739 0,0" /></g><g
           transform="translate(440.0176,329.8193)"
           id="g344"><path
             id="path346"
             style="fill:#6a3416;fill-opacity:1;fill-rule:nonzero;stroke:none"
             d="m 0,0 c 2.986,8.604 12.227,20.777 12.227,20.777 -10.293,-8.404 -22.86,-4.334 -31.234,0.235 0.999,-2.747 -0.471,-9.271 -1.302,-11.849 -7.16,-22.208 -20.505,-23.075 -22.304,-23.089 C -14.688,-21.957 -3.83,-11.038 0,0" /></g><g
           id="g348"><g
             id="g350" /><g
             id="g362"><g
               style="opacity:0.5"
               id="g360"
               clip-path="url(#clipPath354)"><g
                 id="g358"
                 transform="translate(445.6152,346.8813)"><path
                   id="path356"
                   style="fill:#532715;fill-opacity:1;fill-rule:nonzero;stroke:none"
                   d="m 0,0 c -2.828,-4.256 -6.559,-9.891 -7.912,-14.645 -6.83,-24.006 -39.758,-16.339 -40.299,-16.343 27.926,-8.031 38.783,2.888 42.613,13.926 C -2.611,-8.458 6.629,3.715 6.629,3.715 4.498,1.976 2.27,0.777 0,0" /></g></g></g></g><g
           id="g364"><g
             id="g366" /><g
             id="g378"><g
               style="opacity:0.5"
               id="g376"
               clip-path="url(#clipPath370)"><g
                 id="g374"
                 transform="translate(465.1621,371.0508)"><path
                   id="path372"
                   style="fill:#e3b523;fill-opacity:1;fill-rule:nonzero;stroke:none"
                   d="M 0,0 C 0,0.003 -0.001,0.006 -0.002,0.008 -0.087,0.352 -0.18,0.681 -0.281,0.995 -0.285,1.002 -0.285,1.007 -0.287,1.013 -0.389,1.324 -0.498,1.623 -0.614,1.906 -0.617,1.917 -0.621,1.924 -0.625,1.933 -0.741,2.212 -0.863,2.481 -0.994,2.734 -0.999,2.746 -1.005,2.756 -1.012,2.769 -1.141,3.018 -1.274,3.255 -1.416,3.479 -1.424,3.492 -1.434,3.504 -1.441,3.517 -1.572,3.723 -1.709,3.915 -1.85,4.099 -1.869,4.126 -1.889,4.153 -1.91,4.18 -2.042,4.349 -2.18,4.506 -2.321,4.656 -2.353,4.69 -2.385,4.727 -2.417,4.759 -2.552,4.898 -2.69,5.027 -2.831,5.148 -2.875,5.188 -2.92,5.228 -2.965,5.265 -2.968,5.267 -2.971,5.271 -2.974,5.272 v 0 c -1.26,1.033 -2.743,1.433 -4.243,1.241 -10.066,-1.28 -20.79,2.773 -27.414,4.923 -4.385,1.421 10.389,-6.164 28.563,-7.061 1,-0.049 3.254,-0.304 3.349,-1.927 0.842,-14.317 -0.359,-40.455 -26.174,-60.008 -7.92,-5.997 -26.303,-7.813 -39.041,2.375 12.673,-12.663 15.456,-10.239 21.038,-10.792 30.548,-3.031 42.805,36.505 46.318,51.945 C 0.806,-7.945 0.816,-3.315 0,0" /></g></g></g></g><g
           transform="translate(443.3359,346.2378)"
           id="g380"><path
             id="path382"
             style="fill:#dc6869;fill-opacity:1;fill-rule:nonzero;stroke:none"
             d="m 0,0 c -12.3,-1.7 -19.439,4.359 -19.439,4.359 0,0 -3.449,-26.928 -18.454,-32.844 0,0 21.01,-6.583 30.354,14.773 C -5.622,-9.332 0.775,0.107 0,0" /></g><g
           transform="translate(443.3359,346.2378)"
           id="g384"><path
             id="path386"
             style="fill:#cc6161;fill-opacity:1;fill-rule:nonzero;stroke:none"
             d="m 0,0 c -0.541,-0.076 -1.07,-0.13 -1.592,-0.176 -1.391,-2.61 -5.654,-9.16 -7.158,-12.598 -7.5,-17.143 -28.806,-15.577 -29.143,-15.711 0,0 21.01,-6.583 30.354,14.773 C -5.622,-9.332 0.775,0.107 0,0" /></g><g
           transform="translate(365.3115,364.9873)"
           id="g388"><path
             id="path390"
             style="fill:#e3b523;fill-opacity:1;fill-rule:nonzero;stroke:none"
             d="m 0,0 c 0,0 0.296,0.234 0.9,0.605 0.604,0.366 1.508,0.888 2.725,1.42 1.214,0.532 2.729,1.112 4.528,1.578 1.796,0.471 3.869,0.869 6.16,1.04 2.288,0.18 4.793,0.183 7.416,-0.111 2.619,-0.291 5.368,-0.797 8.125,-1.621 2.755,-0.822 5.549,-1.857 8.271,-3.151 2.722,-1.293 5.392,-2.789 7.964,-4.43 1.293,-0.811 2.543,-1.685 3.774,-2.571 1.247,-0.906 2.385,-1.769 3.59,-2.589 2.396,-1.635 4.837,-3.121 7.3,-4.354 1.228,-0.617 2.463,-1.17 3.689,-1.656 1.224,-0.496 2.442,-0.92 3.648,-1.265 1.204,-0.347 2.393,-0.607 3.554,-0.786 1.159,-0.183 2.291,-0.292 3.377,-0.302 2.173,-0.028 4.167,0.287 5.863,0.818 1.697,0.533 3.096,1.261 4.191,1.953 1.087,0.708 1.891,1.356 2.416,1.82 0.268,0.23 0.463,0.415 0.598,0.539 0.134,0.125 0.202,0.188 0.202,0.188 0,0 -0.058,-0.074 -0.173,-0.215 -0.115,-0.142 -0.28,-0.358 -0.517,-0.62 -0.468,-0.53 -1.176,-1.3 -2.214,-2.143 -1.039,-0.834 -2.406,-1.759 -4.153,-2.48 -0.871,-0.362 -1.829,-0.686 -2.864,-0.925 -1.036,-0.231 -2.148,-0.396 -3.312,-0.461 -1.166,-0.071 -2.383,-0.046 -3.635,0.064 -1.249,0.126 -2.529,0.339 -3.824,0.636 -1.297,0.299 -2.608,0.68 -3.922,1.135 -1.311,0.465 -2.623,1.009 -3.93,1.612 -2.614,1.209 -5.211,2.663 -7.715,4.337 -1.256,0.82 -2.5,1.751 -3.678,2.599 -1.198,0.858 -2.424,1.688 -3.663,2.492 -2.476,1.615 -5.041,3.086 -7.648,4.356 -2.6,1.286 -5.237,2.384 -7.856,3.243 -2.624,0.841 -5.211,1.503 -7.708,1.889 -2.496,0.385 -4.888,0.57 -7.1,0.543 C 12.169,3.155 10.139,2.963 8.36,2.656 6.582,2.342 5.045,1.956 3.804,1.555 2.564,1.152 1.605,0.771 0.967,0.477 0.328,0.187 0,0 0,0" /></g><g
           transform="translate(526.7725,226.1455)"
           id="g392"><path
             id="path394"
             style="fill:#278fce;fill-opacity:1;fill-rule:nonzero;stroke:none"
             d="m 0,0 c 0,0 0.522,0.013 1.438,0.033 0.456,0.02 1.007,0.041 1.641,0.068 0.633,0.03 1.344,0.074 2.117,0.125 0.388,0.019 0.791,0.049 1.207,0.092 0.417,0.039 0.848,0.065 1.289,0.098 0.882,0.102 1.813,0.175 2.772,0.292 0.478,0.059 0.965,0.118 1.459,0.177 0.491,0.071 0.988,0.142 1.49,0.215 1.004,0.131 2.016,0.309 3.029,0.484 1.018,0.144 2.016,0.395 3.013,0.572 0.995,0.191 1.962,0.433 2.904,0.636 0.236,0.057 0.471,0.104 0.7,0.164 0.227,0.065 0.454,0.123 0.679,0.181 0.452,0.114 0.894,0.227 1.323,0.338 0.863,0.206 1.665,0.453 2.412,0.667 0.374,0.107 0.731,0.21 1.072,0.306 0.343,0.095 0.671,0.176 0.97,0.281 0.597,0.202 1.129,0.361 1.565,0.496 0.874,0.268 1.385,0.403 1.385,0.403 0,0 -0.446,-0.273 -1.248,-0.719 C 30.815,4.686 30.328,4.412 29.761,4.115 29.196,3.809 28.532,3.53 27.812,3.208 27.45,3.048 27.074,2.881 26.685,2.709 26.298,2.528 25.876,2.404 25.453,2.242 24.599,1.946 23.714,1.577 22.759,1.323 22.284,1.184 21.801,1.047 21.313,0.906 20.825,0.76 20.329,0.619 19.819,0.516 18.807,0.297 17.782,0.037 16.739,-0.12 c -0.521,-0.085 -1.041,-0.169 -1.56,-0.253 -0.518,-0.09 -1.04,-0.126 -1.555,-0.19 -1.029,-0.135 -2.051,-0.184 -3.037,-0.243 -0.983,-0.081 -1.941,-0.048 -2.845,-0.065 -0.905,0.022 -1.76,0.035 -2.547,0.107 -0.393,0.031 -0.77,0.05 -1.128,0.086 -0.358,0.041 -0.697,0.081 -1.014,0.12 -0.637,0.07 -1.188,0.174 -1.641,0.249 C 0.507,-0.142 0,0 0,0" /></g><g
           transform="translate(527.0391,225.46)"
           id="g396"><path
             id="path398"
             style="fill:#278fce;fill-opacity:1;fill-rule:nonzero;stroke:none"
             d="m 0,0 c 0,0 0.484,-0.194 1.332,-0.537 0.426,-0.163 0.943,-0.361 1.535,-0.588 0.592,-0.224 1.264,-0.463 1.994,-0.724 0.364,-0.135 0.746,-0.267 1.145,-0.392 0.398,-0.131 0.803,-0.276 1.223,-0.42 0.85,-0.257 1.734,-0.557 2.66,-0.827 0.463,-0.137 0.933,-0.279 1.41,-0.417 0.478,-0.131 0.965,-0.26 1.453,-0.392 0.975,-0.276 1.974,-0.515 2.974,-0.754 0.992,-0.271 2.008,-0.435 2.994,-0.67 0.988,-0.216 1.97,-0.377 2.919,-0.561 0.238,-0.043 0.472,-0.092 0.707,-0.128 0.234,-0.031 0.466,-0.066 0.696,-0.105 0.46,-0.071 0.909,-0.143 1.348,-0.212 0.875,-0.149 1.708,-0.242 2.477,-0.339 0.387,-0.05 0.756,-0.098 1.108,-0.144 0.351,-0.05 0.685,-0.104 1,-0.126 0.63,-0.052 1.18,-0.116 1.634,-0.165 0.91,-0.1 1.434,-0.178 1.434,-0.178 0,0 -0.52,-0.072 -1.433,-0.166 -0.456,-0.046 -1.012,-0.104 -1.652,-0.151 -0.639,-0.06 -1.36,-0.054 -2.149,-0.065 -0.395,-0.002 -0.806,-0.005 -1.232,-0.01 -0.427,-0.014 -0.862,0.042 -1.315,0.058 -0.901,0.067 -1.862,0.076 -2.838,0.221 -0.49,0.063 -0.989,0.127 -1.492,0.189 -0.507,0.061 -1.018,0.126 -1.526,0.233 -1.017,0.199 -2.061,0.367 -3.082,0.637 -0.511,0.129 -1.023,0.255 -1.531,0.383 -0.512,0.122 -1.006,0.297 -1.505,0.442 -0.997,0.284 -1.956,0.642 -2.885,0.977 C 8.469,-4.612 7.601,-4.205 6.766,-3.862 5.942,-3.484 5.163,-3.135 4.467,-2.758 4.118,-2.574 3.781,-2.404 3.465,-2.231 3.155,-2.051 2.859,-1.88 2.582,-1.72 2.025,-1.404 1.56,-1.091 1.174,-0.843 0.408,-0.331 0,0 0,0" /></g><g
           transform="translate(324.1665,299.0996)"
           id="g400"><path
             id="path402"
             style="fill:#278fce;fill-opacity:1;fill-rule:nonzero;stroke:none"
             d="M 0,0 C 0,0 0.154,0.013 0.452,-0.007 0.746,-0.037 1.186,-0.08 1.72,-0.24 1.996,-0.301 2.285,-0.409 2.6,-0.53 2.758,-0.59 2.923,-0.653 3.094,-0.719 3.264,-0.788 3.424,-0.881 3.601,-0.968 3.776,-1.059 3.955,-1.149 4.14,-1.245 4.328,-1.336 4.518,-1.437 4.697,-1.561 5.066,-1.796 5.446,-2.057 5.85,-2.326 6.589,-2.927 7.45,-3.547 8.196,-4.351 8.579,-4.743 9,-5.13 9.37,-5.569 c 0.368,-0.443 0.741,-0.897 1.123,-1.358 0.185,-0.234 0.394,-0.457 0.562,-0.708 0.172,-0.249 0.344,-0.5 0.518,-0.752 0.346,-0.506 0.695,-1.02 1.048,-1.536 0.656,-1.06 1.256,-2.176 1.883,-3.275 0.552,-1.135 1.086,-2.278 1.601,-3.407 0.277,-0.556 0.464,-1.143 0.688,-1.705 0.214,-0.567 0.425,-1.127 0.633,-1.679 0.197,-0.554 0.419,-1.09 0.585,-1.632 0.162,-0.54 0.32,-1.072 0.474,-1.587 0.306,-1.033 0.575,-2.014 0.82,-2.92 0.243,-0.905 0.392,-1.756 0.55,-2.501 0.158,-0.745 0.273,-1.4 0.373,-1.937 0.197,-1.078 0.284,-1.697 0.284,-1.697 0,0 -0.27,0.57 -0.697,1.575 -0.212,0.503 -0.475,1.112 -0.752,1.817 -0.279,0.701 -0.594,1.492 -0.938,2.355 -0.372,0.853 -0.771,1.775 -1.173,2.756 -0.2,0.488 -0.404,0.992 -0.614,1.507 -0.216,0.512 -0.46,1.024 -0.694,1.551 -0.483,1.045 -0.933,2.145 -1.452,3.232 -0.53,1.081 -1.069,2.178 -1.607,3.276 -0.595,1.059 -1.165,2.136 -1.753,3.177 -0.315,0.506 -0.628,1.011 -0.936,1.505 -0.305,0.502 -0.604,0.996 -0.943,1.449 -0.326,0.464 -0.647,0.921 -0.961,1.366 -0.31,0.45 -0.675,0.836 -0.991,1.248 C 6.838,-5.246 6.678,-5.047 6.52,-4.851 6.367,-4.647 6.181,-4.487 6.021,-4.303 5.688,-3.949 5.372,-3.598 5.055,-3.271 4.72,-2.973 4.394,-2.688 4.09,-2.406 3.943,-2.259 3.786,-2.134 3.627,-2.02 3.473,-1.901 3.322,-1.786 3.176,-1.674 3.027,-1.565 2.889,-1.446 2.745,-1.354 2.599,-1.263 2.46,-1.174 2.324,-1.089 2.056,-0.911 1.806,-0.751 1.565,-0.639 0.623,-0.132 0,0 0,0" /></g><g
           transform="translate(355.8418,273.4707)"
           id="g404"><path
             id="path406"
             style="fill:#278fce;fill-opacity:1;fill-rule:nonzero;stroke:none"
             d="m 0,0 c 0,0 -0.397,0.411 -1.073,1.143 -0.677,0.728 -1.638,1.768 -2.771,3.027 -2.293,2.494 -5.276,5.852 -8.393,9.043 -0.778,0.8 -1.57,1.581 -2.356,2.344 -0.792,0.751 -1.572,1.491 -2.355,2.169 -0.387,0.346 -0.775,0.675 -1.16,0.991 -0.192,0.158 -0.381,0.316 -0.569,0.47 -0.192,0.149 -0.382,0.294 -0.569,0.439 -0.367,0.302 -0.748,0.555 -1.108,0.816 -0.354,0.275 -0.72,0.488 -1.065,0.716 -0.7,0.43 -1.36,0.795 -1.97,1.069 -0.298,0.16 -0.598,0.235 -0.868,0.348 -0.137,0.052 -0.268,0.106 -0.394,0.149 -0.129,0.033 -0.252,0.063 -0.369,0.093 -0.234,0.055 -0.446,0.123 -0.633,0.156 -0.189,0.025 -0.349,0.047 -0.48,0.063 -0.265,0.038 -0.408,0.059 -0.408,0.059 0,0 0.142,0.023 0.405,0.066 0.135,0.021 0.301,0.045 0.496,0.072 0.197,0.024 0.422,0.01 0.678,0.011 0.129,-0.003 0.264,-0.004 0.406,-0.005 0.142,-0.011 0.286,-0.035 0.441,-0.052 0.304,-0.042 0.645,-0.076 0.987,-0.173 0.699,-0.158 1.474,-0.401 2.279,-0.751 0.809,-0.343 1.664,-0.767 2.516,-1.287 0.434,-0.253 0.866,-0.531 1.296,-0.828 0.44,-0.286 0.866,-0.606 1.3,-0.931 0.869,-0.652 1.729,-1.366 2.573,-2.121 0.423,-0.377 0.838,-0.767 1.253,-1.16 0.406,-0.404 0.814,-0.808 1.222,-1.21 0.792,-0.828 1.576,-1.662 2.31,-2.515 0.372,-0.423 0.735,-0.846 1.083,-1.273 C -6.945,10.515 -6.6,10.093 -6.273,9.67 -5.609,8.833 -4.994,8 -4.422,7.206 -3.849,6.412 -3.335,5.641 -2.865,4.927 -1.924,3.501 -1.209,2.267 -0.726,1.394 -0.48,0.959 -0.307,0.605 -0.182,0.368 -0.063,0.128 0,0 0,0" /></g></g></g></g></svg>